# Blender v2.90.0 OBJ File: 'EmissionRoom.blend'
# www.blender.org
mtllib EmissionRoom.mtl
o Cube
v 1.000000 1.086788 -1.000000
v 1.000000 0.000000 -1.000000
v 1.000000 1.086788 1.000000
v 1.000000 0.000000 1.000000
v -0.844880 1.086788 -0.800504
v -0.844880 0.000000 -0.800504
v -1.000000 1.086788 1.000000
v -1.000000 0.000000 1.000000
v -0.762213 0.000000 -1.000000
v -0.004419 1.086788 1.000000
v -0.004419 0.000000 1.000000
v -0.762213 1.086788 -1.000000
v -1.000000 0.000000 -0.651713
v 1.000000 1.086788 0.001516
v -1.000000 1.086788 -0.651713
v 1.000000 0.000000 0.001516
v -0.008226 0.000000 -0.005373
v -0.699027 1.358356 -0.702778
v -0.913717 1.086788 -0.716626
v -0.793730 1.086788 -0.896199
v -1.305110 0.000000 -1.661533
v -1.305110 1.086788 -1.661533
v -1.197124 0.000000 -1.650897
v -1.197124 1.086788 -1.650897
v -1.093289 0.000000 -1.619399
v -1.093289 1.086788 -1.619399
v -0.997594 0.000000 -1.568249
v -0.997594 1.086788 -1.568249
v -0.913717 0.000000 -1.499412
v -0.913717 1.086788 -1.499412
v -0.844880 0.000000 -1.415535
v -0.844880 1.086788 -1.415535
v -0.793730 0.000000 -1.319840
v -0.793730 1.086788 -1.319840
v -0.762232 0.000000 -1.216004
v -0.762232 1.086788 -1.216004
v -0.751596 0.000000 -1.108019
v -0.751596 1.086788 -1.108019
v -0.762232 1.086788 -1.000034
v -0.793730 0.000000 -0.896199
v -1.000000 0.543394 -0.651713
v -0.913717 0.000000 -0.716626
v -0.844189 0.544365 -0.799696
v -1.093289 0.000000 -0.596640
v -1.093289 1.086788 -0.596640
v -1.197125 0.000000 -0.565142
v -1.197125 1.086788 -0.565142
v -1.305110 0.000000 -0.554506
v -1.305110 1.086788 -0.554506
v -1.413095 0.000000 -0.565142
v -1.413095 1.086788 -0.565142
v -1.516930 0.000000 -0.596640
v -1.516930 1.086788 -0.596640
v -1.612625 0.000000 -0.647790
v -1.612625 1.086788 -0.647790
v -1.696503 0.000000 -0.716627
v -1.696503 1.086788 -0.716627
v -1.765339 0.000000 -0.800504
v -1.765339 1.086788 -0.800504
v -1.816489 0.000000 -0.896199
v -1.816489 1.086788 -0.896199
v -1.847987 0.000000 -1.000035
v -1.847987 1.086788 -1.000035
v -1.858623 0.000000 -1.108020
v -1.858623 1.086788 -1.108020
v -1.847987 0.000000 -1.216005
v -1.847987 1.086788 -1.216005
v -1.816489 0.000000 -1.319840
v -1.816489 1.086788 -1.319840
v -1.765339 0.000000 -1.415535
v -1.765339 1.086788 -1.415535
v -1.696502 0.000000 -1.499413
v -1.696502 1.086788 -1.499413
v -1.612625 0.000000 -1.568249
v -1.612625 1.086788 -1.568249
v -1.516929 0.000000 -1.619399
v -1.516929 1.086788 -1.619399
v -1.413094 0.000000 -1.650897
v -1.413094 1.086788 -1.650897
v -1.305110 1.824348 -1.108020
v -0.913025 0.544365 -0.715819
v -0.793039 0.544365 -0.895391
v -0.762213 0.543394 -1.000000
v 1.000000 0.543394 -1.000000
v -1.000000 0.543394 1.000000
v 1.000000 0.543394 1.000000
v -0.004419 0.543394 1.000000
v 1.000000 0.543394 0.001516
v -1.305110 0.543394 -1.661533
v -1.197124 0.543394 -1.650897
v -1.093289 0.543394 -1.619399
v -0.997594 0.543394 -1.568249
v -0.913717 0.543394 -1.499412
v -0.844880 0.543394 -1.415535
v -0.793730 0.543394 -1.319840
v -0.762232 0.543394 -1.216004
v -0.751596 0.543394 -1.108019
v -1.093289 0.543394 -0.596640
v -1.197125 0.543394 -0.565142
v -1.305110 0.543394 -0.554506
v -1.413095 0.543394 -0.565142
v -1.516930 0.543394 -0.596640
v -1.612625 0.543394 -0.647790
v -1.696503 0.543394 -0.716627
v -1.765339 0.543394 -0.800504
v -1.816489 0.543394 -0.896199
v -1.847987 0.543394 -1.000035
v -1.858623 0.543394 -1.108020
v -1.847987 0.543394 -1.216005
v -1.816489 0.543394 -1.319840
v -1.765339 0.543394 -1.415535
v -1.696502 0.543394 -1.499413
v -1.612625 0.543394 -1.568249
v -1.516929 0.543394 -1.619399
v -1.413094 0.543394 -1.650897
vt 0.625000 0.500000
vt 0.625000 0.375000
vt 0.750000 0.687500
vt 0.500000 0.875000
vt 0.625000 0.875000
vt 0.625000 1.000000
vt 0.500000 1.000000
vt 0.250000 0.625000
vt 0.375000 0.625000
vt 0.375000 0.750000
vt 0.250000 0.750000
vt 0.500000 0.625000
vt 0.625000 0.625000
vt 0.625000 0.750000
vt 0.500000 0.750000
vt 0.500000 0.375000
vt 0.500000 0.500000
vt 0.125000 0.625000
vt 0.125000 0.750000
vt 0.125000 0.500000
vt 0.125000 0.549904
vt 0.250000 0.500000
vt 0.375000 0.500000
vt 0.500000 0.000000
vt 0.625000 0.000000
vt 0.625000 0.125000
vt 0.500000 0.125000
vt 0.000000 0.000000
vt 0.000000 0.000000
vt 0.000000 0.000000
vt 0.000000 0.000000
vt 0.000000 0.000000
vt 0.625000 0.062500
vt 0.000000 0.000000
vt 1.000000 0.750000
vt 1.000000 1.000000
vt 0.968750 1.000000
vt 0.968750 0.750000
vt 0.937500 1.000000
vt 0.937500 0.750000
vt 0.906250 1.000000
vt 0.906250 0.750000
vt 0.875000 1.000000
vt 0.875000 0.750000
vt 0.843750 1.000000
vt 0.843750 0.750000
vt 0.812500 1.000000
vt 0.812500 0.750000
vt 0.781250 1.000000
vt 0.781250 0.750000
vt 0.750000 1.000000
vt 0.750000 0.750000
vt 0.718750 1.000000
vt 0.718750 0.750000
vt 0.593750 0.750000
vt 0.593750 1.000000
vt 0.562500 1.000000
vt 0.562500 0.750000
vt 0.531250 1.000000
vt 0.531250 0.750000
vt 0.500000 1.000000
vt 0.500000 0.750000
vt 0.468750 1.000000
vt 0.468750 0.750000
vt 0.437500 1.000000
vt 0.437500 0.750000
vt 0.406250 1.000000
vt 0.406250 0.750000
vt 0.375000 1.000000
vt 0.375000 0.750000
vt 0.343750 1.000000
vt 0.343750 0.750000
vt 0.312500 1.000000
vt 0.312500 0.750000
vt 0.281250 1.000000
vt 0.281250 0.750000
vt 0.250000 1.000000
vt 0.250000 0.750000
vt 0.218750 1.000000
vt 0.218750 0.750000
vt 0.187500 1.000000
vt 0.187500 0.750000
vt 0.156250 1.000000
vt 0.156250 0.750000
vt 0.125000 1.000000
vt 0.125000 0.750000
vt 0.093750 1.000000
vt 0.093750 0.750000
vt 0.062500 1.000000
vt 0.062500 0.750000
vt 0.296875 1.000000
vt 0.031250 1.000000
vt 0.031250 0.750000
vt 0.000000 1.000000
vt 0.000000 0.750000
vt 0.658156 0.471731
vt 0.703179 0.485389
vt 0.883337 0.050447
vt 0.859375 1.000000
vt 0.000000 0.000000
vt 0.000000 0.000000
vt 0.181724 0.500000
vt 0.000000 0.000000
vt 0.000000 0.000000
vt 0.000000 0.000000
vt 0.000000 0.000000
vt 0.000000 0.000000
vt 0.031250 0.500000
vt 0.000000 0.500000
vt 0.062500 0.500000
vt 0.093750 0.500000
vt 0.125000 0.500000
vt 0.156250 0.500000
vt 0.187500 0.500000
vt 0.218750 0.500000
vt 0.250000 0.500000
vt 0.281250 0.500000
vt 0.312500 0.500000
vt 0.343750 0.500000
vt 0.375000 0.500000
vt 0.406250 0.500000
vt 0.437500 0.500000
vt 0.468750 0.500000
vt 0.500000 0.500000
vt 0.531250 0.500000
vt 0.562500 0.500000
vt 0.593750 0.500000
vt 0.750000 0.500000
vt 0.718750 0.500000
vt 0.781250 0.500000
vt 0.812500 0.500000
vt 0.843750 0.500000
vt 0.875000 0.500000
vt 0.906250 0.500000
vt 0.937500 0.500000
vt 0.968750 0.500000
vt 1.000000 0.500000
vt 0.375000 0.000000
vt 0.375000 0.125000
vt 0.375000 0.875000
vt 0.375000 0.375000
vt 0.375000 1.000000
vt 0.750000 0.490000
vt 0.796822 0.485388
vt 0.841844 0.471731
vt 0.883337 0.449553
vt 0.919706 0.419706
vt 0.949553 0.383337
vt 0.971731 0.341844
vt 0.985388 0.296822
vt 0.990000 0.250000
vt 0.985388 0.203178
vt 0.971731 0.158156
vt 0.949553 0.116663
vt 0.919706 0.080294
vt 0.841844 0.028269
vt 0.796822 0.014612
vt 0.750000 0.010000
vt 0.703178 0.014612
vt 0.658156 0.028269
vt 0.616663 0.050447
vt 0.580294 0.080294
vt 0.550447 0.116663
vt 0.528269 0.158156
vt 0.514611 0.203179
vt 0.510000 0.250000
vt 0.514612 0.296822
vt 0.528269 0.341844
vt 0.550447 0.383337
vt 0.580295 0.419706
vt 0.616663 0.449553
vn 0.0000 0.7382 -0.6745
vn 0.0000 0.0000 1.0000
vn 0.0000 -1.0000 0.0000
vn 1.0000 0.0000 0.0000
vn 0.0000 0.0000 -1.0000
vn 0.1578 0.9875 0.0000
vn -1.0000 0.0000 0.0000
vn -0.6501 0.5411 -0.5335
vn 0.0000 0.9875 0.1575
vn -0.8417 0.4756 -0.2556
vn -0.6699 0.7424 0.0000
vn -0.5342 0.4586 -0.7101
vn -0.7417 0.5410 -0.3964
vn 0.0980 0.0000 -0.9952
vn 0.2903 0.0000 -0.9569
vn 0.4714 0.0000 -0.8819
vn 0.6344 0.0000 -0.7730
vn 0.7730 0.0000 -0.6344
vn 0.8819 0.0000 -0.4714
vn 0.9569 0.0000 -0.2903
vn 0.9952 0.0000 -0.0980
vn 0.9952 0.0000 0.0979
vn 0.5084 0.0000 0.8611
vn 0.2903 0.0000 0.9569
vn 0.0980 0.0000 0.9952
vn -0.0980 0.0000 0.9952
vn -0.2903 0.0000 0.9569
vn -0.4714 0.0000 0.8819
vn -0.6344 0.0000 0.7730
vn -0.7730 0.0000 0.6344
vn -0.8819 0.0000 0.4714
vn -0.9569 0.0000 0.2903
vn -0.9952 0.0000 0.0980
vn -0.9952 0.0000 -0.0980
vn -0.9569 0.0000 -0.2903
vn -0.8819 0.0000 -0.4714
vn -0.7730 0.0000 -0.6344
vn -0.6344 0.0000 -0.7730
vn -0.4714 0.0000 -0.8819
vn 0.2326 0.5984 0.7667
vn -0.2903 0.0000 -0.9569
vn -0.0980 0.0000 -0.9952
vn -0.7974 0.5984 0.0785
vn 0.0785 0.5984 -0.7974
vn 0.7667 0.5984 0.2326
vn -0.5083 0.5984 0.6193
vn -0.5083 0.5984 -0.6193
vn 0.7066 0.5984 -0.3777
vn 0.0785 0.5984 0.7974
vn -0.7974 0.5984 -0.0785
vn 0.7066 0.5984 0.3777
vn 0.2326 0.5984 -0.7667
vn -0.6193 0.5984 0.5083
vn -0.3777 0.5984 -0.7066
vn 0.6193 0.5984 0.5083
vn 0.7667 0.5984 -0.2326
vn -0.0785 0.5984 0.7974
vn -0.7667 0.5984 -0.2326
vn 0.3777 0.5984 -0.7066
vn 0.4825 0.5964 0.6414
vn -0.7066 0.5984 0.3777
vn -0.2326 0.5984 -0.7667
vn 0.7974 0.5984 -0.0785
vn -0.2326 0.5984 0.7667
vn -0.7066 0.5984 -0.3777
vn 0.5083 0.5984 -0.6193
vn 0.4081 0.5964 0.6912
vn -0.7667 0.5984 0.2326
vn -0.0785 0.5984 -0.7974
vn 0.7974 0.5984 0.0785
vn -0.3777 0.5984 0.7066
vn -0.6193 0.5984 -0.5083
vn 0.6193 0.5984 -0.5083
vn 0.7730 0.0019 0.6344
vn 0.9581 0.0008 0.2865
vn 0.8819 0.0018 0.4714
vn 0.5973 0.0010 0.8021
vn 0.9952 0.0000 0.0978
usemtl Material
s off
f 1/1/1 12/2/1 18/3/1
f 87/4/2 10/5/2 7/6/2 85/7/2
f 17/8/3 16/9/3 4/10/3 11/11/3
f 88/12/4 14/13/4 3/14/4 86/15/4
f 83/16/5 12/2/5 1/1/5 84/17/5
f 13/18/3 17/8/3 11/11/3 8/19/3
f 86/15/2 3/14/2 10/5/2 87/4/2
f 14/13/6 1/1/6 18/3/6
f 3/14/6 14/13/6 18/3/6
f 6/20/3 17/8/3 42/21/3
f 84/17/4 1/1/4 14/13/4 88/12/4
f 9/22/3 2/23/3 16/9/3 17/8/3
f 85/24/7 7/25/7 15/26/7 41/27/7
f 5/28/8 19/29/8 18/30/8
f 7/6/9 10/5/9 18/3/9
f 12/31/10 20/32/10 18/30/10
f 10/5/9 3/14/9 18/3/9
f 15/26/11 7/25/11 18/33/11
f 18/30/12 19/29/12 15/34/12
f 18/30/13 20/32/13 5/28/13
f 89/35/14 22/36/14 24/37/14 90/38/14
f 90/38/15 24/37/15 26/39/15 91/40/15
f 91/40/16 26/39/16 28/41/16 92/42/16
f 92/42/17 28/41/17 30/43/17 93/44/17
f 93/44/18 30/43/18 32/45/18 94/46/18
f 94/46/19 32/45/19 34/47/19 95/48/19
f 95/48/20 34/47/20 36/49/20 96/50/20
f 96/50/21 36/49/21 38/51/21 97/52/21
f 97/52/22 38/51/22 39/53/22 83/54/22
f 41/55/23 15/56/23 45/57/23 98/58/23
f 98/58/24 45/57/24 47/59/24 99/60/24
f 99/60/25 47/59/25 49/61/25 100/62/25
f 100/62/26 49/61/26 51/63/26 101/64/26
f 101/64/27 51/63/27 53/65/27 102/66/27
f 102/66/28 53/65/28 55/67/28 103/68/28
f 103/68/29 55/67/29 57/69/29 104/70/29
f 104/70/30 57/69/30 59/71/30 105/72/30
f 105/72/31 59/71/31 61/73/31 106/74/31
f 106/74/32 61/73/32 63/75/32 107/76/32
f 107/76/33 63/75/33 65/77/33 108/78/33
f 108/78/34 65/77/34 67/79/34 109/80/34
f 109/80/35 67/79/35 69/81/35 110/82/35
f 110/82/36 69/81/36 71/83/36 111/84/36
f 111/84/37 71/83/37 73/85/37 112/86/37
f 112/86/38 73/85/38 75/87/38 113/88/38
f 113/88/39 75/87/39 77/89/39 114/90/39
f 47/59/40 45/57/40 80/91/40
f 114/90/41 77/89/41 79/92/41 115/93/41
f 115/93/42 79/92/42 22/94/42 89/95/42
f 76/96/3 78/97/3 13/98/3
f 65/77/43 63/75/43 80/91/43
f 24/37/44 22/36/44 80/99/44
f 20/32/45 39/100/45 80/101/45
f 57/69/46 55/67/46 80/91/46
f 75/87/47 73/85/47 80/91/47
f 34/47/48 32/45/48 80/99/48
f 49/61/49 47/59/49 80/91/49
f 67/79/50 65/77/50 80/91/50
f 5/28/51 20/32/51 80/101/51
f 26/39/52 24/37/52 80/99/52
f 59/71/53 57/69/53 80/91/53
f 77/89/54 75/87/54 80/91/54
f 19/29/55 5/28/55 80/101/55
f 36/49/56 34/47/56 80/99/56
f 51/63/57 49/61/57 80/91/57
f 69/81/58 67/79/58 80/91/58
f 28/41/59 26/39/59 80/99/59
f 15/34/60 19/29/60 80/101/60
f 61/73/61 59/71/61 80/91/61
f 79/92/62 77/89/62 80/91/62
f 38/51/63 36/49/63 80/99/63
f 53/65/64 51/63/64 80/91/64
f 71/83/65 69/81/65 80/91/65
f 30/43/66 28/41/66 80/99/66
f 45/57/67 15/56/67 80/91/67
f 63/75/68 61/73/68 80/91/68
f 22/94/69 79/92/69 80/91/69
f 39/53/70 38/51/70 80/99/70
f 55/67/71 53/65/71 80/91/71
f 73/85/72 71/83/72 80/91/72
f 32/45/73 30/43/73 80/99/73
f 17/8/3 40/102/3 9/22/3
f 42/21/3 17/8/3 13/18/3
f 40/102/3 17/8/3 6/20/3
f 5/28/74 19/29/74 81/103/74 43/104/74
f 39/100/75 20/32/75 82/105/75 83/106/75
f 20/32/76 5/28/76 43/104/76 82/105/76
f 19/29/77 15/34/77 41/107/77 81/103/77
f 78/108/42 115/93/42 89/95/42 21/109/42
f 76/110/41 114/90/41 115/93/41 78/108/41
f 74/111/39 113/88/39 114/90/39 76/110/39
f 72/112/38 112/86/38 113/88/38 74/111/38
f 70/113/37 111/84/37 112/86/37 72/112/37
f 68/114/36 110/82/36 111/84/36 70/113/36
f 66/115/35 109/80/35 110/82/35 68/114/35
f 64/116/34 108/78/34 109/80/34 66/115/34
f 62/117/33 107/76/33 108/78/33 64/116/33
f 60/118/32 106/74/32 107/76/32 62/117/32
f 58/119/31 105/72/31 106/74/31 60/118/31
f 56/120/30 104/70/30 105/72/30 58/119/30
f 54/121/29 103/68/29 104/70/29 56/120/29
f 52/122/28 102/66/28 103/68/28 54/121/28
f 50/123/27 101/64/27 102/66/27 52/122/27
f 48/124/26 100/62/26 101/64/26 50/123/26
f 46/125/25 99/60/25 100/62/25 48/124/25
f 44/126/24 98/58/24 99/60/24 46/125/24
f 13/127/23 41/55/23 98/58/23 44/126/23
f 37/128/78 97/52/78 83/54/78 9/129/78
f 35/130/21 96/50/21 97/52/21 37/128/21
f 33/131/20 95/48/20 96/50/20 35/130/20
f 31/132/19 94/46/19 95/48/19 33/131/19
f 29/133/18 93/44/18 94/46/18 31/132/18
f 27/134/17 92/42/17 93/44/17 29/133/17
f 25/135/16 91/40/16 92/42/16 27/134/16
f 23/136/15 90/38/15 91/40/15 25/135/15
f 21/137/14 89/35/14 90/38/14 23/136/14
f 8/138/7 85/24/7 41/27/7 13/139/7
f 2/23/4 84/17/4 88/12/4 16/9/4
f 4/10/2 86/15/2 87/4/2 11/140/2
f 9/141/5 83/16/5 84/17/5 2/23/5
f 16/9/4 88/12/4 86/15/4 4/10/4
f 11/140/2 87/4/2 85/7/2 8/142/2
f 78/97/3 21/143/3 13/98/3
f 21/143/3 23/144/3 13/98/3
f 23/144/3 25/145/3 13/98/3
f 25/145/3 27/146/3 13/98/3
f 27/146/3 29/147/3 13/98/3
f 29/147/3 31/148/3 13/98/3
f 31/148/3 33/149/3 13/98/3
f 33/149/3 35/150/3 13/98/3
f 35/150/3 37/151/3 13/98/3
f 37/151/3 9/152/3 13/98/3
f 9/152/3 40/153/3 13/98/3
f 40/153/3 6/154/3 13/98/3
f 6/154/3 42/155/3 13/98/3
f 13/98/3 44/156/3 46/157/3
f 46/157/3 48/158/3 13/98/3
f 48/158/3 50/159/3 13/98/3
f 50/159/3 52/160/3 13/98/3
f 52/160/3 54/161/3 13/98/3
f 54/161/3 56/162/3 13/98/3
f 56/162/3 58/163/3 13/98/3
f 58/163/3 60/164/3 13/98/3
f 60/164/3 62/165/3 13/98/3
f 62/165/3 64/166/3 13/98/3
f 64/166/3 66/167/3 13/98/3
f 66/167/3 68/168/3 13/98/3
f 68/168/3 70/169/3 13/98/3
f 70/169/3 72/170/3 13/98/3
f 72/170/3 74/171/3 13/98/3
f 74/171/3 76/96/3 13/98/3
o Cube.001
v -0.043837 0.000000 -0.552521
v -0.043837 0.169899 -0.552521
v -0.043837 0.000000 -0.661397
v -0.043837 0.169899 -0.661397
v 0.071691 0.000000 -0.552521
v 0.071691 0.169899 -0.552521
v 0.071691 0.000000 -0.661397
v 0.071691 0.169899 -0.661397
vt 0.375000 0.000000
vt 0.625000 0.000000
vt 0.625000 0.250000
vt 0.375000 0.250000
vt 0.625000 0.500000
vt 0.375000 0.500000
vt 0.625000 0.750000
vt 0.375000 0.750000
vt 0.625000 1.000000
vt 0.375000 1.000000
vt 0.125000 0.500000
vt 0.125000 0.750000
vt 0.875000 0.500000
vt 0.875000 0.750000
vn -1.0000 0.0000 0.0000
vn 0.0000 0.0000 -1.0000
vn 1.0000 0.0000 0.0000
vn 0.0000 0.0000 1.0000
vn 0.0000 -1.0000 0.0000
vn 0.0000 1.0000 0.0000
usemtl None
s off
f 116/172/79 117/173/79 119/174/79 118/175/79
f 118/175/80 119/174/80 123/176/80 122/177/80
f 122/177/81 123/176/81 121/178/81 120/179/81
f 120/179/82 121/178/82 117/180/82 116/181/82
f 118/182/83 122/177/83 120/179/83 116/183/83
f 123/176/84 119/184/84 117/185/84 121/178/84
o Cube.002
v -0.592872 0.000000 0.682162
v -0.592872 0.169899 0.682162
v -0.592872 0.000000 0.573285
v -0.592872 0.169899 0.573285
v 0.620726 0.000000 0.682162
v 0.620726 0.169899 0.682162
v 0.620726 0.000000 0.573285
v 0.620726 0.169899 0.573285
vt 0.375000 0.000000
vt 0.625000 0.000000
vt 0.625000 0.250000
vt 0.375000 0.250000
vt 0.625000 0.500000
vt 0.375000 0.500000
vt 0.625000 0.750000
vt 0.375000 0.750000
vt 0.625000 1.000000
vt 0.375000 1.000000
vt 0.125000 0.500000
vt 0.125000 0.750000
vt 0.875000 0.500000
vt 0.875000 0.750000
vn -1.0000 0.0000 0.0000
vn 0.0000 0.0000 -1.0000
vn 1.0000 0.0000 0.0000
vn 0.0000 0.0000 1.0000
vn 0.0000 -1.0000 0.0000
vn 0.0000 1.0000 0.0000
usemtl None
s off
f 124/186/85 125/187/85 127/188/85 126/189/85
f 126/189/86 127/188/86 131/190/86 130/191/86
f 130/191/87 131/190/87 129/192/87 128/193/87
f 128/193/88 129/192/88 125/194/88 124/195/88
f 126/196/89 130/191/89 128/193/89 124/197/89
f 131/190/90 127/198/90 125/199/90 129/192/90
